<svg xmlns="http://www.w3.org/2000/svg" id="Comp-1" viewBox="0 0 500 500"><style>
@keyframes a0_t { 0% { transform: translate(250px,250px) rotate(0deg); animation-timing-function: cubic-bezier(.3,0,.7,1); } 84.89% { transform: translate(250px,250px) rotate(360deg); } 100% { transform: translate(250px,250px) rotate(360deg); } }
@keyframes a1_t { 0% { transform: translate(251px,250px) rotate(0deg); } 4.697% { transform: translate(251px,250px) rotate(0deg); animation-timing-function: cubic-bezier(.3,0,.7,1); } 89.587% { transform: translate(251px,250px) rotate(360deg); } 100% { transform: translate(251px,250px) rotate(360deg); } }
@keyframes a1_o { 0% { opacity: 0; animation-timing-function: steps(1); } 4.697% { opacity: 1; animation-timing-function: steps(1); } 100% { opacity: 1; } }
@keyframes a2_t { 0% { transform: translate(251px,250px) rotate(0deg); } 9.451% { transform: translate(251px,250px) rotate(0deg); animation-timing-function: cubic-bezier(.3,0,.7,1); } 94.341% { transform: translate(251px,250px) rotate(360deg); } 100% { transform: translate(251px,250px) rotate(360deg); } }
@keyframes a2_o { 0% { opacity: 0; animation-timing-function: steps(1); } 9.451% { opacity: 1; animation-timing-function: steps(1); } 100% { opacity: 1; } }
@keyframes a3_t { 0% { transform: translate(251px,250px) rotate(0deg); } 14.148% { transform: translate(251px,250px) rotate(0deg); animation-timing-function: cubic-bezier(.3,0,.7,1); } 99.038% { transform: translate(251px,250px) rotate(360deg); } 100% { transform: translate(251px,250px) rotate(360deg); } }
@keyframes a3_o { 0% { opacity: 0; animation-timing-function: steps(1); } 14.148% { opacity: 1; animation-timing-function: steps(1); } 100% { opacity: 1; } }
@keyframes a4_t { 0% { transform: translate(251px,250px) rotate(0deg); } 18.846% { transform: translate(251px,250px) rotate(0deg); animation-timing-function: cubic-bezier(.3,0,.7,.9); } 100% { transform: translate(251px,250px) rotate(358deg); } }
@keyframes a4_o { 0% { opacity: 0; animation-timing-function: steps(1); } 18.846% { opacity: 1; animation-timing-function: steps(1); } 100% { opacity: 1; } }
</style><g transform="translate(250,250)" style="animation: 1.77s linear infinite both a0_t;"><path fill="#0140c1" d="M0-125c13.8 0 25 11.2 25 25c0 13.8-11.2 25-25 25c-13.8 0-25-11.2-25-25c0-13.8 11.2-25 25-25Z" stroke="#0140c1" stroke-width="0"/></g><g opacity="0" transform="translate(251,250)" style="animation: 1.77s linear infinite both a1_t, 1.77s linear infinite both a1_o;"><path fill="#0140c1" d="M0-120c11 0 20 9 20 20c0 11-9 20-20 20c-11 0-20-9-20-20c0-11 9-20 20-20Z" stroke="#0140c1" stroke-width="0"/></g><g opacity="0" transform="translate(251,250)" style="animation: 1.77s linear infinite both a2_t, 1.77s linear infinite both a2_o;"><path fill="#0140c1" d="M0-115c8.3 0 15 6.7 15 15c0 8.3-6.7 15-15 15c-8.3 0-15-6.7-15-15c0-8.3 6.7-15 15-15Z" stroke="#0140c1" stroke-width="0"/></g><g opacity="0" transform="translate(251,250)" style="animation: 1.77s linear infinite both a3_t, 1.77s linear infinite both a3_o;"><path fill="#0140c1" d="M0-110c5.5 0 10 4.5 10 10c0 5.5-4.5 10-10 10c-5.5 0-10-4.5-10-10c0-5.5 4.5-10 10-10Z" stroke="#0140c1" stroke-width="0"/></g><g opacity="0" transform="translate(251,250)" style="animation: 1.77s linear infinite both a4_t, 1.77s linear infinite both a4_o;"><path fill="#0140c1" d="M0-105c2.8 0 5 2.2 5 5c0 2.8-2.2 5-5 5c-2.8 0-5-2.2-5-5c0-2.8 2.2-5 5-5Z" stroke="#0140c1" stroke-width="0"/></g></svg>