<svg xmlns="http://www.w3.org/2000/svg" id="Main-Scene" viewBox="0 0 1080 1080"><style>
@keyframes a0_t { 0% { transform: translate(-14px,-84px) rotate(-359deg); animation-timing-function: cubic-bezier(0,0,1,1); } 100% { transform: translate(-14px,-84px) rotate(0deg); } }
@keyframes a1_t { 0% { transform: translate(0px,0px) rotate(-359deg); animation-timing-function: cubic-bezier(0,0,1,1); } 100% { transform: translate(0px,0px) rotate(0deg); } }
@keyframes a2_t { 0% { transform: translate(-14px,-84px) rotate(359deg); animation-timing-function: cubic-bezier(0,0,1,1); } 100% { transform: translate(-14px,-84px) rotate(0deg); } }
@keyframes a3_da { 0% { stroke-dasharray: 2250px; animation-timing-function: cubic-bezier(0,0,1,1); } 100% { stroke-dasharray: 2250px; } }
@keyframes a4_da { 0% { stroke-dasharray: 2250px; animation-timing-function: cubic-bezier(0,0,1,1); } 100% { stroke-dasharray: 2250px; } }
</style><g transform="translate(-420,0)"><rect opacity="0" width="1920" height="1080"/></g><g transform="translate(554,624)"><g transform="translate(-14,-84) rotate(-359)" style="animation: 2s linear infinite both a0_t;"><path fill="none" d="M0-358c-197.7 0-358 160.3-358 358c0 197.7 160.3 358 358 358c197.7 0 358-160.3 358-358c0-197.7-160.3-358-358-358Z" stroke="#deeaff" stroke-width="30" stroke-miterlimit="1" stroke-linecap="round" stroke-linejoin="round" stroke-dasharray="2249.2"/><g transform="rotate(-359)" style="animation: 2s linear infinite both a1_t;"><path fill="none" d="M0-358c-197.7 0-358 160.3-358 358c0 197.7 160.3 358 358 358c197.7 0 358-160.3 358-358c0-197.7-160.3-358-358-358Z" stroke="#0140c1" stroke-width="30" stroke-miterlimit="1" stroke-linecap="round" stroke-linejoin="round" stroke-dasharray="2249.2" stroke-dashoffset="1200"/></g></g></g><g transform="translate(536.4,536.4) scale(.76,.76) translate(14,84)"><g transform="translate(-14,-84) rotate(359)" style="animation: 2s linear infinite both a2_t;"><path fill="none" d="M0-358c197.7 0 358 160.3 358 358c0 197.7-160.3 358-358 358c-197.7 0-358-160.3-358-358c0-197.7 160.3-358 358-358Z" stroke="#0140c1" stroke-width="30" stroke-miterlimit="1" stroke-linecap="round" stroke-linejoin="round" stroke-dasharray="2250" stroke-dashoffset="2000" style="animation: 2s linear infinite both a3_da;"/><path fill="none" d="M0-358c197.7 0 358 160.3 358 358c0 197.7-160.3 358-358 358c-197.7 0-358-160.3-358-358c0-197.7 160.3-358 358-358Z" stroke="#0140c1" stroke-width="30" stroke-miterlimit="1" stroke-linecap="round" stroke-linejoin="round" stroke-dasharray="2250" stroke-dashoffset="2000" transform="rotate(180)" style="animation: 2s linear infinite both a4_da;"/></g></g><path d="M441.3 698.2v-324.4h131.1c25.2 0 46.6 4.7 64.4 14.1c17.7 9.3 31.2 22.2 40.5 38.8c9.4 16.5 14.1 35.5 14.1 57c0 21.6-4.7 40.6-14.2 57c-9.6 16.5-23.3 29.3-41.4 38.5c-18 9.2-39.7 13.8-65.2 13.8h-59.1l29.8-55h17.9c13.5 0 24.7-2.2 33.4-6.8c8.9-4.6 15.5-11 19.8-19.1c4.5-8.3 6.7-17.7 6.7-28.4c0-10.7-2.2-20.1-6.7-28.2c-4.3-8.1-10.9-14.4-19.8-18.8c-8.8-4.6-20.1-6.8-33.7-6.8h-47.4v229.2l-70.2 39.1Z" fill="#0140c1"/></svg>